<mxfile host="app.diagrams.net" modified="2023-11-20T04:37:35.347Z" agent="Mozilla/5.0 (Windows NT 10.0; Win64; x64) AppleWebKit/537.36 (KHTML, like Gecko) Chrome/119.0.0.0 Safari/537.36" version="22.1.3" etag="_levXoPuqVX4DJL4iGPm" type="github">
  <diagram name="Page-1" id="m7m9heV8ONqg0qjLuI-J">
    <mxGraphModel>
      <root>
        <mxCell id="0" />
        <mxCell id="1" parent="0" />
      </root>
    </mxGraphModel>
  </diagram>
</mxfile>
